HIERARCHY
ROOT SpineBase
{
  OFFSET 0.000000 0.000000 0.000000
  CHANNELS 6 Xposition Yposition Zposition Zrotation Xrotation Yrotation
  JOINT SpineMid
  {
    OFFSET 0.000000 26.402003 0.000000
    CHANNELS 3 Zrotation Xrotation Yrotation
    JOINT SpineShoulder
    {
      OFFSET -0.098452 19.712880 -0.698595
      CHANNELS 3 Zrotation Xrotation Yrotation
      JOINT Neck
      {
        OFFSET -0.023613 6.545036 -0.541382
        CHANNELS 3 Zrotation Xrotation Yrotation
        JOINT Head
        {
          OFFSET 2.658933 10.674460 1.271017
          CHANNELS 3 Zrotation Xrotation Yrotation
          End Site
          {
            OFFSET 0 0 0
          }
        }
      }
      JOINT ShoulderLeft
      {
        OFFSET -11.203519 -2.403344 -7.593570
        CHANNELS 3 Zrotation Xrotation Yrotation
        JOINT ElbowLeft
        {
          OFFSET -3.979352 -20.605128 -2.585252
          CHANNELS 3 Zrotation Xrotation Yrotation
          JOINT WristLeft
          {
            OFFSET 1.426345 -22.016137 -6.036578
            CHANNELS 3 Zrotation Xrotation Yrotation
            JOINT HandLeft
            {
              OFFSET 1.120749 -6.908265 -0.191622
              CHANNELS 3 Zrotation Xrotation Yrotation
              JOINT HandTipLeft
              {
                OFFSET 0.528339 -6.079336 -0.385498
                CHANNELS 3 Zrotation Xrotation Yrotation
                End Site
                {
                  OFFSET 0 0 0
                }
              }
              JOINT ThumbLeft
              {
                OFFSET 1.929771 -0.533273 -2.105730
                CHANNELS 3 Zrotation Xrotation Yrotation
                End Site
                {
                  OFFSET 0 0 0
                }
              }
            }
          }
        }
      }
      JOINT ShoulderRight
      {
        OFFSET 12.531817 -4.181456 4.914477
        CHANNELS 3 Zrotation Xrotation Yrotation
        JOINT ElbowRight
        {
          OFFSET 2.185511 -25.265974 2.134737
          CHANNELS 3 Zrotation Xrotation Yrotation
          JOINT WristRight
          {
            OFFSET 3.012304 -21.275129 -3.136142
            CHANNELS 3 Zrotation Xrotation Yrotation
            JOINT HandRight
            {
              OFFSET -0.954565 -4.921040 -0.409837
              CHANNELS 3 Zrotation Xrotation Yrotation
              JOINT HandTipRight
              {
                OFFSET -0.260576 -5.748708 -1.420331
                CHANNELS 3 Zrotation Xrotation Yrotation
                End Site
                {
                  OFFSET 0 0 0
                }
              }
              JOINT ThumbRight
              {
                OFFSET 1.966812 1.090407 -1.467998
                CHANNELS 3 Zrotation Xrotation Yrotation
                End Site
                {
                  OFFSET 0 0 0
                }
              }
            }
          }
        }
      }
    }
  }
  JOINT HipLeft
  {
    OFFSET -4.474086 1.112837 -5.434530
    CHANNELS 3 Zrotation Xrotation Yrotation
    JOINT KneeLeft
    {
      OFFSET -8.338495 -33.383495 2.781890
      CHANNELS 3 Zrotation Xrotation Yrotation
      JOINT AnkleLeft
      {
        OFFSET -3.485719 -31.834436 8.794127
        CHANNELS 3 Zrotation Xrotation Yrotation
        JOINT FootLeft
        {
          OFFSET 3.415751 -5.925191 0.178259
          CHANNELS 3 Zrotation Xrotation Yrotation
          End Site
          {
            OFFSET 0 0 0
          }
        }
      }
    }
  }
  JOINT HipRight
  {
    OFFSET 4.084067 0.317341 -0.655433
    CHANNELS 3 Zrotation Xrotation Yrotation
    JOINT KneeRight
    {
      OFFSET -2.287560 -28.510701 3.369657
      CHANNELS 3 Zrotation Xrotation Yrotation
      JOINT AnkleRight
      {
        OFFSET -7.697808 -37.613476 9.548866
        CHANNELS 3 Zrotation Xrotation Yrotation
        JOINT FootRight
        {
          OFFSET -1.226849 -3.838474 -6.325855
          CHANNELS 3 Zrotation Xrotation Yrotation
          End Site
          {
            OFFSET 0 0 0
          }
        }
      }
    }
  }
}
MOTION
Frames: 13
Frame Time: 0.033333
22.947882 70.281714 366.730713 -0.000000 0.000000 -29.180137 -0.000000 0.000000 29.180137 -0.000000 0.000000 0.000000 -0.000000 0.000000 0.000000 0.000000 0.000000 0.000000 -0.000000 0.000000 0.000000 -0.000000 0.000000 0.000000 -0.000000 0.000000 0.000000 -0.000000 0.000000 0.000000 0.000000 0.000000 0.000000 0.000000 0.000000 0.000000 -0.000000 0.000000 0.000000 -0.000000 0.000000 0.000000 -0.000000 0.000000 0.000000 -0.000000 0.000000 0.000000 0.000000 0.000000 0.000000 0.000000 0.000000 0.000000 -0.000000 0.000000 29.180137 -0.000000 0.000000 0.000000 -0.000000 0.000000 0.000000 0.000000 0.000000 0.000000 -0.000000 0.000000 29.180137 -0.000000 0.000000 0.000000 -0.000000 0.000000 0.000000 0.000000 0.000000 0.000000
22.795427 70.302400 366.712890 -0.076704 -0.106344 -29.194150 0.015089 0.130249 29.194061 -0.000000 0.000000 0.000000 -0.000000 0.000000 0.000000 0.000000 0.000000 0.000000 -0.000000 0.000000 0.000000 -0.000000 0.000000 0.000000 -0.470520 -0.949912 -0.145090 2.053111 1.335004 0.038313 0.000000 0.000000 0.000000 0.000000 0.000000 0.000000 -0.778513 -0.743443 -0.135143 0.065595 1.631652 0.369996 3.377570 0.307908 -0.669508 -2.018900 -4.207687 0.443223 0.000000 0.000000 0.000000 0.000000 0.000000 0.000000 0.015089 0.130249 29.194061 -0.000000 0.000000 0.000000 0.980844 10.520622 6.002720 0.000000 0.000000 0.000000 0.015089 0.130249 29.194061 -0.000000 0.000000 0.000000 -0.600362 -1.809061 1.596970 0.000000 0.000000 0.000000
22.665963 70.325621 366.706081 -0.128642 -0.215276 -29.203950 0.007253 0.250678 29.203692 -0.000000 0.000000 0.000000 -0.870357 0.486424 -0.013802 0.000000 0.000000 0.000000 -0.000000 0.000000 0.000000 -0.000000 0.000000 0.000000 -0.941890 -1.677313 -0.260249 3.602788 2.464481 0.034508 0.000000 0.000000 0.000000 0.000000 0.000000 0.000000 -1.373988 -1.342269 -0.248314 -0.070654 2.867350 0.696075 6.251587 0.503066 -1.173104 -3.563141 -7.325952 0.771178 0.000000 0.000000 0.000000 0.000000 0.000000 0.000000 0.007253 0.250678 29.203692 -0.000000 0.000000 0.000000 1.100790 19.081996 10.912910 0.000000 0.000000 0.000000 0.927423 0.445024 29.326697 -0.897407 0.281278 -0.126389 -0.677820 -3.139071 2.196845 0.000000 0.000000 0.000000
22.559490 70.351377 366.710286 -0.155827 -0.326843 -29.209821 -0.023489 0.361326 29.209450 -0.000000 0.000000 0.000000 -1.207128 0.642025 -0.009392 0.000000 0.000000 0.000000 -0.409232 -0.864365 0.215246 0.772336 -0.172171 -0.390710 -1.774322 -1.161998 -0.148140 4.652330 3.392110 0.028451 0.000000 0.000000 0.000000 0.000000 0.000000 0.000000 -1.802409 -1.813987 -0.337766 -0.362671 3.691770 0.966645 8.569209 0.636278 -1.524209 -4.634255 -9.398294 0.984863 0.000000 0.000000 0.000000 0.000000 0.000000 0.000000 -0.172008 1.171252 29.038693 -0.263302 -0.780198 0.170951 0.938790 24.788664 14.291806 0.000000 0.000000 0.000000 1.239177 0.629169 29.375002 -1.231642 0.386036 -0.172317 -0.219731 -3.900015 1.695624 0.000000 0.000000 0.000000
22.476008 70.379669 366.725505 -0.158251 -0.441095 -29.212003 -0.077148 0.462229 29.211705 -0.000000 0.000000 0.000000 -1.479336 0.739780 0.001424 0.000000 0.000000 0.000000 -0.465041 -1.004244 0.248299 0.836262 -0.336437 -0.448025 -2.257409 -1.165402 -0.156932 5.206109 4.122069 0.048156 0.000000 0.000000 0.000000 0.000000 0.000000 0.000000 -2.071347 -2.169477 -0.401919 -0.773915 4.102107 1.168952 10.307879 0.747705 -1.741813 -5.248582 -10.474397 1.084808 0.000000 0.000000 0.000000 0.000000 0.000000 0.000000 -0.275174 1.444438 29.001983 0.323984 -1.497150 0.455969 0.537417 28.064760 15.617191 0.000000 0.000000 0.000000 1.449452 0.787338 29.408415 -1.489403 0.466531 -0.207293 0.800820 -4.044291 0.001768 0.000000 0.000000 0.000000
22.415518 70.410496 366.751737 -0.135882 -0.558085 -29.210693 -0.153758 0.553427 29.210773 -0.000000 0.000000 0.000000 -1.687530 0.779955 0.018072 0.000000 0.000000 0.000000 -0.480726 -1.069523 0.262480 0.802277 -0.553184 -0.467439 -2.687746 -0.985544 -0.144578 5.269240 4.657061 0.110389 0.000000 0.000000 0.000000 0.000000 0.000000 0.000000 -2.180190 -2.413585 -0.438906 -1.280329 4.109854 1.292058 11.469382 0.861538 -1.843229 -5.433015 -10.600514 1.070410 0.000000 0.000000 0.000000 0.000000 0.000000 0.000000 -0.400663 1.654545 28.971840 0.313509 -1.647454 0.491214 1.165198 27.946718 15.343699 0.000000 0.000000 0.000000 1.558137 0.919365 29.428017 -1.670624 0.522584 -0.231628 2.424244 -3.576885 -2.947456 0.000000 0.000000 0.000000
22.393908 70.451476 366.794991 -0.051018 -0.670233 -29.200295 -0.282458 0.609948 29.201500 -0.000000 0.000000 0.000000 -1.958607 0.720185 0.065822 0.000000 0.000000 0.000000 -0.433348 -1.056705 0.254564 0.630196 -0.859410 -0.442768 -3.044431 0.060458 0.011257 4.642135 5.298935 0.246510 0.000000 0.000000 0.000000 0.000000 0.000000 0.000000 -2.131997 -2.594942 -0.452809 -1.761715 3.762405 1.311082 11.335852 0.434132 -1.620115 -4.656185 -7.533216 0.671415 0.000000 0.000000 0.000000 0.000000 0.000000 0.000000 -0.560688 1.757900 28.949101 -0.312211 -1.139169 0.255044 4.149239 19.942574 10.807861 0.000000 0.000000 0.000000 1.394010 0.965132 29.412771 -1.634601 0.514111 -0.226982 3.441054 -6.589582 -3.757308 0.000000 0.000000 0.000000
22.388290 70.481686 366.844601 0.025978 -0.793214 -29.196304 0.123125 0.035103 29.196818 0.277953 0.003385 0.029238 -2.461236 1.480240 0.088561 0.000000 0.000000 0.000000 -0.765830 -0.185532 0.209019 0.430021 -1.296218 -0.416232 -3.653882 0.313521 0.037414 4.093486 4.376822 0.303555 0.000000 0.000000 0.000000 0.000000 0.000000 0.000000 -2.234372 -1.784852 -0.422351 -2.587797 3.372385 1.324475 10.495274 -0.712206 -1.200841 -3.522436 -4.589372 0.212338 0.000000 0.000000 0.000000 0.000000 0.000000 0.000000 -0.719954 1.770282 28.951383 -0.256367 -1.104434 0.251695 4.133763 13.079048 7.090765 0.000000 0.000000 0.000000 1.464993 1.033098 29.433446 -2.010429 1.533686 -0.490449 4.998186 -10.708756 -4.699865 0.000000 0.000000 0.000000
22.388348 70.511572 366.898206 0.090054 -0.907670 -29.259918 0.162085 0.046432 29.263575 0.289157 -0.018603 0.034853 -2.454786 1.475202 0.104191 0.000000 0.000000 0.000000 -0.570535 0.019632 0.149628 -0.403934 -1.717713 -0.245766 -4.060935 0.215544 -0.114207 2.070751 6.381982 0.856059 0.000000 0.000000 0.000000 0.000000 0.000000 0.000000 -1.809281 -1.430924 -0.356038 -3.573920 2.038268 1.143686 10.672058 0.366524 -1.236554 -2.429816 -4.561075 0.014731 0.000000 0.000000 0.000000 0.000000 0.000000 0.000000 -0.911627 1.792148 29.011516 -0.165964 -1.102087 0.259558 3.200834 3.388724 1.926218 0.000000 0.000000 0.000000 1.293035 1.118479 29.488443 -1.993677 1.557458 -0.502794 9.776634 -5.917017 -14.658296 0.000000 0.000000 0.000000
22.380296 70.552978 366.941165 0.142115 -1.006644 -29.254534 0.197696 0.051827 29.260779 0.302590 -0.027730 0.039795 -2.406862 1.436077 0.118436 0.000000 0.000000 0.000000 0.221244 -0.028543 0.055989 -2.384969 -1.699178 0.129172 -4.678548 -0.363950 -0.490446 1.664913 5.876018 1.053275 0.000000 0.000000 0.000000 0.000000 0.000000 0.000000 -1.211876 -0.967991 -0.268079 -4.568550 0.966389 0.961980 9.912939 1.682630 -1.311321 -2.007037 -5.727345 0.221950 0.000000 0.000000 0.000000 0.000000 0.000000 0.000000 -1.056582 1.828906 29.003448 0.623085 -1.723773 0.553123 3.297659 6.557774 2.975388 0.000000 0.000000 0.000000 0.752120 1.181573 29.426607 -1.453963 1.245385 -0.389932 15.768075 0.937006 -26.401460 0.000000 0.000000 0.000000
22.387983 70.588084 366.994324 0.227191 -1.125130 -29.279613 0.172648 0.071275 29.288849 0.333280 -0.033012 0.045383 -2.245231 1.402020 0.107476 0.000000 0.000000 0.000000 -0.060169 0.175571 0.050463 -2.389323 -2.014068 0.155257 -4.272912 0.100698 -0.468507 2.901891 6.240003 0.884284 0.000000 0.000000 0.000000 0.000000 0.000000 0.000000 -0.550089 -0.254984 -0.158808 -5.984946 -0.645733 0.717117 11.308229 2.387736 -1.430429 -1.599753 -5.895102 0.036416 0.000000 0.000000 0.000000 0.000000 0.000000 0.000000 -1.270047 1.928579 29.010960 0.908284 -1.981812 0.668941 2.147228 1.849115 0.272109 0.000000 0.000000 0.000000 0.382106 1.270124 29.422531 -1.165893 1.056315 -0.325000 17.681944 5.330758 -30.024225 0.000000 0.000000 0.000000
22.499437 70.591021 366.990781 0.460362 -1.158457 -29.262458 0.084597 0.064449 29.280269 0.354797 -0.069323 0.054387 -2.136176 1.222575 0.106532 0.000000 0.000000 0.000000 -0.919070 1.213910 -0.061964 -1.898589 -2.311632 0.334739 -0.413304 1.257964 -0.446664 1.626152 5.350706 0.540325 0.000000 0.000000 0.000000 0.000000 0.000000 0.000000 -0.228481 -0.101035 -0.123792 -6.869849 -1.299812 0.612739 13.117882 2.893429 -1.685664 -2.972511 -5.614776 0.121432 0.000000 0.000000 0.000000 0.000000 0.000000 0.000000 -1.597931 1.679971 29.006004 1.286499 -2.035810 0.739790 0.793395 -3.770963 -3.000949 0.000000 0.000000 0.000000 -0.060297 0.976211 29.386680 -0.902907 1.159541 -0.310201 17.914256 8.909424 -30.443818 0.000000 0.000000 0.000000
22.546517 70.588512 367.084704 0.590813 -1.355581 -29.046113 0.009148 0.135978 29.068978 0.445280 -0.057015 0.065436 -2.057494 1.231350 0.076472 0.000000 0.000000 0.000000 -3.993098 1.612496 0.299143 2.882446 -0.325884 -0.292114 2.587892 3.528130 0.419152 2.413912 2.003638 -0.347087 0.000000 0.000000 0.000000 0.000000 0.000000 0.000000 -0.316464 -0.359990 -0.157220 -6.966693 -1.283244 0.610155 13.401676 4.651946 -2.104953 -1.636294 -5.652204 0.036859 0.000000 0.000000 0.000000 0.000000 0.000000 0.000000 -1.858295 1.856019 28.775520 1.412739 -2.202902 0.805963 2.582713 2.805472 0.543359 0.000000 0.000000 0.000000 0.169301 1.475796 29.218463 -1.747472 1.104743 -0.449120 16.363608 11.275794 -27.611997 0.000000 0.000000 0.000000
